<svg xmlns="http://www.w3.org/2000/svg" width="1024" height="1024"><path d="M1024 194.52a419.53 419.53 0 0 1-120.62 33.09 210.94 210.94 0 0 0 92.34-116.14 423.48 423.48 0 0 1-133.48 51A209.47 209.47 0 0 0 708.92 96.1c-116.01 0-210.07 94.06-210.07 210 0 16.45 1.85 32.51 5.44 47.87-174.56-8.77-329.35-92.4-432.94-219.48a208.47 208.47 0 0 0-28.41 105.58c0 72.89 37.1 137.2 93.42 174.82a210.07 210.07 0 0 1-95.15-26.36v2.62c0 101.74 72.43 186.65 168.48 205.98a212.78 212.78 0 0 1-55.35 7.36c-13.57 0-26.68-1.35-39.54-3.9 26.74 83.5 104.3 144.22 196.18 145.89-71.86 56.3-162.46 89.77-260.88 89.77-16.95 0-33.65-1.02-50.1-2.88C92.98 893.08 203.36 927.9 322 927.9c386.42 0 597.65-320.07 597.65-597.65l-.7-27.2A419.47 419.47 0 0 0 1024 194.53z"/></svg>