<svg xmlns="http://www.w3.org/2000/svg" width="1024" height="1024"><path fill="#00b45a" d="M891.55 301.23c19.81-18.63 19.68-39.8-.62-57.29L776.8 129.47C763.06 113 740.86 113.41 721.3 132l-84.81 84.9 169.66 169.83 85.4-85.5zM826 460.53L562.2 200.46 693.47 72.64c27.87-26.47 89.11-25.48 110.32 0l139.47 127.82c29.04 24.96 28.22 111.22 0 137.85L826 460.53zM158.59 742.31l-30.7 153.71 153.41-30.78L158.6 742.31zM55.92 968.9l60.95-316.15 271.22 250.7L55.92 968.9zm696.1-528.1l-169.6-169.84L189.07 664.7l169.77 170 393.17-393.9zm-640 209.38L569.76 202l258.26 260.14L381.58 905.3 112.02 650.19zm-3.93-12.53L667.95 77.26c51.17-48.72 124.38-48.56 165.17.68l109.94 110.16c52.81 45.45 53.24 119.45 1.9 167.79L833.11 467.85c-.22.18-447.11 447.8-447.11 447.8-5.37 5.2-11.72 8.49-21.34 10.56 4-.68 4-.68 4.5-1.05-.6.41-3.55 1.13-3.55 1.13-2.59.68-4.04.97-4.2.84L86.74 982.26C60 987.7 36.37 964.08 41.72 937.31l54.82-273.4c.27-3.08.27-3.08.65-4.44l1.07-3.9a37.5 37.5 0 0 1 9.83-17.92zM930.7 341.2c42.91-40.4 42.49-100.4-1.26-137.8L818 91.72c-33.49-40.37-92.98-40.5-135.73.2l-559.68 560.2c-2.17 2.17-3.78 5.28-4.97 9.93-.7 3.05-.7 3.05-.79 3.87L61.8 941.32a17.72 17.72 0 0 0 20.88 20.87l276.34-55.33c1.43-.4 5.48-1.07 5.48-1.07-3.99.68-3.99.68-4.5 1.05 6.05-1.76 9.1-3.36 11.3-5.55.13-.1 447-447.7 447-447.7.22-.17 112.4-112.38 112.4-112.38z"/></svg>