<svg xmlns="http://www.w3.org/2000/svg" width="1024" height="1024"><path fill="#ED1C24" d="M511.94 102.7c-42.65 0-85.14 20.46-110.82 61.4L50.7 710.8C-5.94 799.28 57.29 915.5 162.68 915.5h699.5c104.07 0 168.62-116.2 110.66-204.69l-349.1-546.7c-26.34-40.94-69.16-61.4-111.8-61.4zm1.73 165.9c18.73 0 44.37 14.94 44.37 34.47v320.87c0 18.38-19.23 34.46-44.37 34.46s-44.36-14.93-44.36-34.46V303.07c0-19.53 25.64-34.46 44.36-34.46zm-1.6 440.73a55.14 55.14 0 1 1 0 110.28 55.14 55.14 0 1 1 0-110.28z"/></svg>