<svg xmlns="http://www.w3.org/2000/svg" width="1199" height="1024"><path d="M599.04 919.74c-33.66-3.82-64.12-14.75-90.77-31.26l.94.54c-177.7-108-304.24-285.08-342.81-493.06l-.7-4.51a245.74 245.74 0 0 1-4.03-44.95c0-58.55 19.91-112.45 53.33-155.3l-.43.57c38.72-49.74 97.04-82.64 163.17-87l.67-.04c107.06-7.45 186.19 82.38 220.63 126.6 32.58-46.54 113.57-133.58 221.09-126.6a225.28 225.28 0 0 1 163.46 86.99l.38.51c33.22 42.38 53.28 96.46 53.28 155.22 0 15.72-1.43 31.1-4.18 46.02l.24-1.56c-39.45 212.4-166.15 389.35-340.72 495.28l-3.25 1.83c-25.86 16-56.48 26.94-89.3 30.63l-1 .09zm-208.52-780.1h-9.78a186.25 186.25 0 0 0-136.49 74.9l-.35.5a214.55 214.55 0 0 0-45.27 132.3c0 13.45 1.23 26.61 3.58 39.38l-.2-1.33c37.17 201.72 157.2 369.87 322.75 470.7l3.06 1.74a180.22 180.22 0 0 0 69.8 25.03l.95.1a185.79 185.79 0 0 0 72.03-25.6l-.81.47C838.34 755.4 958.37 587.42 994.95 390.14l.66-4.28a210.01 210.01 0 0 0 3.38-38.05c0-50.07-17.04-96.16-45.63-132.79l.36.48c-31.45-42.74-79.94-71.37-135.26-75.82l-.66-.05c-116.83-7.91-201.54 130.8-202.47 132.2l-15.83 26.99-15.82-27s-80.99-132.19-193.16-132.19z"/></svg>