<svg xmlns="http://www.w3.org/2000/svg" width="40" height="23"><g fill="none"><path fill="#F89521" d="M3.69 17.04c.43 0 .75.14.95.43l.1.13 1.38-1.03-.08-.12c-.39-.6-1.15-.96-2.05-.96a3.77 3.77 0 0 0-3.87 3.32c-.14.97.07 1.8.6 2.4s1.38.96 2.37.96c.96 0 1.88-.41 2.47-1.1l.1-.13-1.25-1.03-.1.13c-.29.37-.74.6-1.21.59a1.23 1.23 0 0 1-.96-.42c-.29-.33-.4-.81-.33-1.36.15-1.05.94-1.82 1.88-1.82zm6.34-1.55a3.77 3.77 0 0 0-3.88 3.32c-.13.97.07 1.8.6 2.4.53.62 1.38.96 2.37.96 2.01 0 3.6-1.36 3.88-3.32.14-.96-.07-1.8-.6-2.4s-1.38-.96-2.38-.96zm-2.18 3.36a2.01 2.01 0 0 1 2-1.82c.49 0 .88.17 1.14.46.28.32.39.79.32 1.32-.16 1.09-.96 1.82-2 1.82-.5 0-.9-.16-1.15-.46a1.63 1.63 0 0 1-.31-1.32zm8.25-3.2h-1.65l-.9 6.37h4.13l.21-1.55h-2.47zm4.6 0h-1.65l-.9 6.37h4.13l.21-1.55h-2.47zm2.05 6.37h4.59l.21-1.55h-2.93l.12-.92h2.63l.23-1.54h-2.63l.1-.82h2.79l.22-1.54h-4.43zm9.35-4.98c.43 0 .75.14.95.43l.09.13 1.38-1.03-.08-.12c-.38-.6-1.15-.96-2.05-.96a3.77 3.77 0 0 0-3.87 3.32c-.13.97.07 1.8.6 2.4.53.62 1.38.96 2.37.96.96 0 1.88-.41 2.47-1.1l.1-.13-1.25-1.03-.1.13c-.28.37-.73.6-1.2.59a1.23 1.23 0 0 1-.97-.42c-.29-.33-.4-.81-.32-1.36.14-1.05.93-1.82 1.88-1.82zm2.73-1.4l-.22 1.5h1.73l-.69 4.88h1.65l.69-4.88h1.73l.21-1.5z"/><path fill="#0095DA" d="M6.58 9.37c.43 0 .75.14.95.43l.1.13L9 8.9l-.08-.13c-.38-.6-1.15-.96-2.05-.96a3.77 3.77 0 0 0-3.87 3.32c-.14.97.07 1.8.6 2.4.53.62 1.38.96 2.37.96.96 0 1.88-.41 2.46-1.1l.1-.13-1.24-1.03-.1.13c-.28.37-.73.6-1.2.59-.38.01-.73-.14-.97-.42-.29-.33-.4-.81-.32-1.36.14-1.05.93-1.81 1.87-1.81zm4.98-1.4H9.9l-.9 6.38h4.12l.22-1.54h-2.48zm2.02 6.38h1.65l.9-6.37h-1.65zm6.62-4.98c.43 0 .75.14.95.43l.09.13 1.38-1.02-.08-.13c-.38-.6-1.15-.96-2.05-.96a3.77 3.77 0 0 0-3.87 3.32c-.13.97.07 1.8.6 2.4.53.62 1.38.96 2.37.96.96 0 1.88-.41 2.47-1.1l.1-.13-1.24-1.03-.1.13c-.3.37-.74.6-1.22.59-.37 0-.72-.14-.96-.42-.29-.33-.4-.81-.32-1.36.14-1.05.93-1.81 1.88-1.81zm9.3-1.4h-2.21l-2.44 2.27.32-2.26h-1.65l-.9 6.37h1.65l.37-2.63 1.88 2.63h2.26l-2.58-3.38z"/><path fill="#008BD2" d="M34.3 9.52c.05-.3-.17-.47-.45-.47a.56.56 0 0 0-.58.48c-.03.26.19.5.34.66.26-.13.66-.37.7-.67zm-1.82 2.52c-.06.39.25.65.6.65s.6-.17.88-.39l-.78-1c-.31.17-.65.35-.7.74z"/><path fill="#0095DA" d="M35.34 9.45c-.1.62-.6 1.08-1.16 1.36l.57.71.6-.7h.89l-.46-2.51a.4.4 0 0 0-.47-.32l-1.05.19c.68.08 1.18.49 1.08 1.27zm-.44 4.08l-.37-.5a2.28 2.28 0 0 1-1.63.63c-.6 0-1.16-.21-1.45-.64l.16.89a.4.4 0 0 0 .47.32l3.9-.7H34.9zm-2.32-2.86c-.29-.37-.48-.66-.4-1.18.05-.45.32-.85.72-1.07l-1.8.33a.4.4 0 0 0-.33.47l.51 2.83c.11-.65.66-1.18 1.3-1.38z"/><path fill="#008BD2" d="M36.64 13l-.33-1.8-.98 1.1.96 1.17h.02a.4.4 0 0 0 .33-.47z"/><path fill="#F89522" d="M36 8.19l.5 2.73.07-2.33a.42.42 0 0 0-.4-.43l-.18-.01v.04zm-2.45-.13L31.45 8a.42.42 0 0 0-.44.4v.13l2.54-.46zm-2.15 5.97l-.5-2.73-.07 2.33a.42.42 0 0 0 .4.43l.18.01a.34.34 0 0 1 0-.04zm2.45.13l2.1.07a.42.42 0 0 0 .44-.4v-.13l-2.54.46z"/><path fill="#0095DA" d="M17.22 2.81a1.04 1.04 0 0 0-.45.6c.28-.12 1.43 0 1.44 1.08 0 .94-.68 1.13-.87 1.13-.75 0-.9-.84-.9-1.12V1.52a1 1 0 0 0-.8.4v2.56c0 .48.21.95.57 1.28.3.28.71.43 1.13.42.52 0 1.67-.35 1.67-1.68a1.6 1.6 0 0 0-.37-1.06 1.81 1.81 0 0 0-1.42-.63m4.36-.89a.4.4 0 1 1-.8 0 .4.4 0 0 1 .8 0m-.81 1.3v2.94c.31 0 .6-.14.8-.38V2.82c-.31 0-.61.15-.8.4m-5.6-1.3a.4.4 0 1 1-.81 0 .4.4 0 0 1 .8 0m-.8 1.3v2.95c.3 0 .6-.14.8-.39V2.83c-.31 0-.61.15-.8.4M10.8 2.8a1.04 1.04 0 0 0-.46.6c.28-.12 1.43 0 1.44 1.08 0 .94-.67 1.13-.87 1.13-.74 0-.9-.84-.9-1.12V1.52a1 1 0 0 0-.8.4v2.56c0 .48.21.95.57 1.28.3.28.71.43 1.13.42.52 0 1.67-.35 1.67-1.68a1.6 1.6 0 0 0-.37-1.06 1.81 1.81 0 0 0-1.42-.63M13.06.97v5.19c.32 0 .66-.15.81-.4V.56a1 1 0 0 0-.8.4m6.41 0v5.2c.32 0 .66-.15.8-.4V.56a1 1 0 0 0-.8.4"/><path fill="#8CC63F" d="M7.13 1.88L7 .75A.1.1 0 0 0 6.96.7L6.5.5 6.35.5 6 .8l-.01.01a.1.1 0 0 0-.03.07v.01L6.08 2l1.05-.12z"/><path fill="#8CC63F" d="M6.54.2C6.52.12 6.46.07 6.4.08c-.06.01-.1.08-.11.16 0 0-.22-.14-.16.03.04.11.1.22.15.31.11 0 .22-.02.32-.05.04-.11.08-.23.1-.35.02-.18-.15 0-.16.02"/><path fill="#00B259" d="M6.92.43A1.39 1.39 0 0 0 6.87.2l-.32.18a.16.16 0 0 0-.23.02L5.98.29c-.02.09-.02.17-.01.26 0 .07.03.15.06.22l.3-.17a.15.15 0 0 0 .25-.04l.34.11V.43"/><path fill="#EC008C" d="M6.65 2.17l1.57-.1h.02l.12-.47a.1.1 0 0 0-.08-.13l-1.45-.36a.1.1 0 0 0-.13.08l-.25.99.2-.02"/><path fill="#F7931E" d="M7.55 2.11l.22-.76-.42-.1-.25.89.45-.03"/><path fill="#F7931E" d="M8.13 1.21c-.04.04-.17.05-.33.03.1-.08.23-.15.3-.1.03.02.04.06.03.07M7.1 1.03a.05.05 0 0 1 0-.06.06.06 0 0 1 .04-.02c.08-.03.16.1.22.2a1.05 1.05 0 0 1-.25-.12m1.1.09a.24.24 0 0 0-.06-.06c-.16-.14-.41.08-.5.16a.12.12 0 0 0-.07-.05.12.12 0 0 0-.09.01c-.05-.12-.18-.4-.38-.34a.24.24 0 0 0-.07.04.14.14 0 0 0-.07.13c.02.15.35.25.47.29a.12.12 0 0 0 .22.04c.1.02.46.06.55-.07a.14.14 0 0 0-.01-.15m-3.6 1.17a.14.14 0 0 1 .03 0l2-.13h.06l-.18-.83a.1.1 0 0 0-.13-.08l-1.82.4a.1.1 0 0 0-.08.12l.12.52z"/><path fill="#FFF" d="M5.95 1.17L6 1.14l-.04.03"/><path fill="#ED1C24" d="M6 2.2l-.18-.83-.66.14.16.73.69-.04"/><path fill="#ED1C24" d="M5.68 1.3c.04-.13.12-.29.21-.27l.05.01.03.03c0 .05-.13.15-.3.24m-.79.03a.05.05 0 0 1 0-.06.15.15 0 0 1 .04-.03c.08-.06.22.05.32.16-.19 0-.32-.03-.35-.07M6 .92a.28.28 0 0 0-.09-.03c-.23-.03-.34.3-.38.45a.12.12 0 0 0-.14.04c-.1-.12-.34-.37-.55-.24a.3.3 0 0 0-.06.06.16.16 0 0 0-.03.18c.08.16.5.16.63.16h.03c.03.02.06.03.1.02a.11.11 0 0 0 .07-.06l.03-.01c.11-.05.5-.24.5-.42A.16.16 0 0 0 6 .92"/><path fill="#0095DA" d="M8.4 6.07c-.2-.86-.32-2.44-.04-3.77a.13.13 0 0 0-.13-.13l-3.59.21a.14.14 0 0 0-.12.14 10.2 10.2 0 0 1-.1 3.57.13.13 0 0 0 .1.12H8.3a.14.14 0 0 0 .11-.13v-.01"/><path fill="#FFF" d="M7.34 3.4a.25.25 0 1 1 0-.5.25.25 0 0 1 0 .5m-1.7 0a.25.25 0 1 1 0-.5.25.25 0 0 1 0 .5m1.72.15a.99.99 0 0 1-1.98 0 .14.14 0 1 1 .28 0 .72.72 0 0 0 1.43 0 .14.14 0 0 1 .27 0"/><path fill="#F89522" d="M31.8 3.3a1.35 1.35 0 0 0-1.3.04c-.32.21-.49.57-.47 1.01v.69c.03.6.5 1.02 1.16 1.02.67 0 1.13-.4 1.16-1.02a9.87 9.87 0 0 0 0-.87.99.99 0 0 0-.55-.87zm-1.19 1.22v-.26c.01-.37.21-.57.58-.57s.57.2.58.57v.73c-.01.35-.22.54-.58.54s-.56-.2-.57-.54V4.52zM24.86 3.2c-.4-.1-.78-.03-1.22.1-.23.06-.26.21-.26.35V6h.59v-.8V3.9a.26.26 0 0 1 .06-.15c.32-.13.6-.13.8 0 .19.13.3.4.3.74v1.5h.57V5.9v-.54c.01-.42.02-.82 0-1.22-.03-.5-.3-.82-.83-.94zm1.22 2.46a.94.94 0 0 0 .3.2c.23.14.47.16.82.18h.04a1.29 1.29 0 0 0 .56-.14c.3-.17.46-.42.44-.78a.7.7 0 0 0-.5-.65c-.13-.05-.25-.08-.37-.11a3.79 3.79 0 0 1-.48-.15c-.1-.04-.21-.18-.2-.23a.41.41 0 0 1 .22-.25.87.87 0 0 1 .45-.02c.12.02.24.06.35.1l.18.06.06.02.24-.42-.07-.04c-.62-.33-1.14-.37-1.63-.11a.73.73 0 0 0-.06 1.3c.15.08.3.14.46.19l.09.03.2.05c.1.01.18.04.26.08.1.05.2.17.2.22a.37.37 0 0 1-.18.26 1.13 1.13 0 0 1-.55.04 1.73 1.73 0 0 1-.4-.15 5.87 5.87 0 0 0-.18-.08l-.06-.02-.2.42zm3.44-.13c-.25-.02-.38-.13-.4-.34V3.78h.66v-.53h-.66V2.6h-.57v.17a2.92 2.92 0 0 0-.01.18v2.08c0 .38.1.66.3.84a.94.94 0 0 0 .63.2l.3-.03.07-.01v-.48h-.17l-.15-.01zm-7.3-2.32h1V6h-1zm11.8-.04a2.5 2.5 0 0 0-1 .1c-.17.06-.28.15-.28.4l.01 1.38v.64l.01.16v.07l.01.08h.56V5.35 3.94c0-.15.03-.2.19-.23.2-.04.38-.02.65.01l.1.01.03-.14.07-.26v-.05l-.03-.03c-.05-.05-.15-.07-.32-.09zm2.32 2.16c-.2.17-.46.27-.73.27-.28 0-.58-.14-.58-.51v-.14h1.7v-.63c0-.8-.6-1.08-1.12-1.08-.52 0-1.15.28-1.15 1.08v.77c0 .7.6 1.02 1.14 1.02.39 0 .76-.13 1.05-.38l-.31-.4zm-.74-1.57c.18 0 .58.06.58.56v.14h-1.15v-.14c0-.49.36-.56.57-.56z"/></g></svg>